<?xml version="1.0" encoding="UTF-8" standalone="no"?>
<!-- Created with Inkscape (http://www.inkscape.org/) -->

<svg
   width="32"
   height="32"
   viewBox="0 0 32 32"
   version="1.1"
   id="svg1"
   inkscape:version="1.3 (0e150ed6c4, 2023-07-21)"
   sodipodi:docname="ruby_console-32x32.svg"
   inkscape:export-filename="ruby_console-32x32.pdf"
   inkscape:export-xdpi="96"
   inkscape:export-ydpi="96"
   xmlns:inkscape="http://www.inkscape.org/namespaces/inkscape"
   xmlns:sodipodi="http://sodipodi.sourceforge.net/DTD/sodipodi-0.dtd"
   xmlns="http://www.w3.org/2000/svg"
   xmlns:svg="http://www.w3.org/2000/svg">
  <sodipodi:namedview
     id="namedview1"
     pagecolor="#ffffff"
     bordercolor="#000000"
     borderopacity="0.25"
     inkscape:showpageshadow="2"
     inkscape:pageopacity="0.0"
     inkscape:pagecheckerboard="true"
     inkscape:deskcolor="#d1d1d1"
     inkscape:document-units="px"
     showgrid="true"
     showguides="true"
     guidecolor="#e50000"
     guideopacity="0.6"
     inkscape:zoom="23.404489"
     inkscape:cx="14.548491"
     inkscape:cy="15.78757"
     inkscape:window-width="1920"
     inkscape:window-height="1017"
     inkscape:window-x="-8"
     inkscape:window-y="-8"
     inkscape:window-maximized="1"
     inkscape:current-layer="layer1"
     inkscape:lockguides="true">
    <inkscape:grid
       id="grid1"
       units="px"
       originx="0"
       originy="0"
       spacingx="1"
       spacingy="1"
       empcolor="#0099e5"
       empopacity="0.30196078"
       color="#0099e5"
       opacity="0.14901961"
       empspacing="5"
       dotted="false"
       gridanglex="30"
       gridanglez="30"
       visible="true" />
    <sodipodi:guide
       position="4,19.481034"
       orientation="1,0"
       id="guide1"
       inkscape:locked="true" />
    <sodipodi:guide
       position="28,18"
       orientation="1,0"
       id="guide2"
       inkscape:locked="true" />
    <sodipodi:guide
       position="21,28"
       orientation="0,-1"
       id="guide3"
       inkscape:locked="true" />
    <sodipodi:guide
       position="13,4"
       orientation="0,-1"
       id="guide4"
       inkscape:locked="true" />
    <sodipodi:guide
       position="16,26"
       orientation="1,0"
       id="guide5"
       inkscape:locked="true" />
    <sodipodi:guide
       position="17,16"
       orientation="0,-1"
       id="guide6"
       inkscape:locked="true" />
  </sodipodi:namedview>
  <defs
     id="defs1" />
  <g
     inkscape:label="Layer 1"
     inkscape:groupmode="layer"
     id="layer1">
    <path
       id="rect4"
       style="fill:#1a1a1a;fill-opacity:1;stroke-width:10.6066"
       inkscape:label="Terminal Background"
       d="m 4,10 v 12 c 0,1.661998 1.3380017,3 3,3 h 18 c 1.661998,0 3,-1.338002 3,-3 V 10 Z" />
    <path
       style="color:#000000;fill:#ffffff;stroke-linecap:round;stroke-linejoin:round;-inkscape-stroke:none"
       d="m 7,15 a 1,1 0 0 0 -0.7070313,0.292969 1,1 0 0 0 0,1.414062 L 8.5859375,19 6.2929687,21.292969 a 1,1 0 0 0 0,1.414062 1,1 0 0 0 1.4140625,0 l 2.9999998,-3 a 1.0001,1.0001 0 0 0 0,-1.414062 l -2.9999998,-3 A 1,1 0 0 0 7,15 Z"
       id="path7" />
    <path
       id="path6"
       style="display:inline;fill:#cc0000;fill-opacity:1;stroke-width:10"
       inkscape:label="Half Gem"
       d="m 16,12 -3,0.0293 -2,2 5,5 5,-5 -2,-2 z" />
    <rect
       style="fill:#ffffff;fill-opacity:1;stroke:none;stroke-width:0.92582;stroke-dasharray:none;stroke-opacity:1"
       id="rect8"
       width="6"
       height="2"
       x="13"
       y="21" />
    <path
       id="rect9"
       style="fill:#00609e;fill-opacity:1;stroke:none;stroke-width:2;stroke-linecap:round;stroke-linejoin:round;stroke-dasharray:none;stroke-opacity:1"
       d="M 7,7 C 5.3380017,7 4,8.3380017 4,10 H 28 C 28,8.3380017 26.661998,7 25,7 Z" />
  </g>
</svg>
